<?xml version="1.0" encoding="UTF-8"?>
<svg id="Intagram" xmlns="http://www.w3.org/2000/svg" viewBox="0 0 1200 323.23">
  <defs>
    <style>
      .cls-1 {
        fill: #fff;
      }
    </style>
  </defs>
  <g>
    <path class="cls-1" d="M294.43,244.78c-7.55,1.19-15.11,2.37-22.66,3.63-5.26.81-10.59,1.78-15.92,2.52-1.04.15-2.07.15-3.19.15-3.11,0-4.44-.07-7.18-1.78-1.48-.96-2.22-2.59-1.7-4.3.81-3.19,1.7-6.44,2.96-9.48,6-14.52,13.33-28.37,21.03-42.07,4.22-7.41,8.67-14.74,13.04-22.15.52-.96,1.19-1.85,1.85-2.74.44-.52,1.04-.74,1.63-.74s1.26.22,1.93.59c1.33.82,1.63,1.56,1.11,2.96-.67,1.78-4.81,10.81-6.74,11.04-.89.15-1.26.59-1.7,1.26-10.15,17.55-20,35.26-27.85,53.99-.96,2.3-1.78,4.74-2.52,7.18-.74,2.37-.44,3.33,1.33,3.33.44,0,.96-.07,1.56-.15,9.63-1.55,19.18-3.11,28.81-4.67,3.78-.59,7.63-1.11,11.41-1.63.3-.07.59-.07.81-.07,1.56,0,2.67.74,3.7,2.52-.74.22-1.19.52-1.7.59Z"/>
    <path class="cls-1" d="M338.35,218.86c2.44,0-2.89,8.07-14.81,12.15-.89.3-1.78.44-2.59.44-3.78,0-6.96-2.74-6.81-6.81,0-1.33.22-2.67.37-4.07-.96-.07-1.48.59-2.07,1.04-4.67,3.18-9.26,6.44-14.29,9.11-2.59,1.41-6.07,3.11-9.11,3.11-1.19,0-2.3-.3-3.33-.96-1.85-1.18-2.3-2.59-1.48-4.67,2.59-6.59,15.11-14.81,21.78-18.29,3.48-1.85,7.04-3.26,10.96-3.63,2.44,0,4.22.15,6.22,1.7.52.44,1.19,1.04.74,1.78-.22.37-.59.52-.96.52-.3,0-.67-.07-.89-.22-.96-.52-1.93-.74-2.89-.74-1.56,0-3.04.59-4.52,1.19-8.89,3.41-16.59,8.67-23.18,15.55-1.11,1.11-2.07,2.37-2.74,3.85.22.22.44.3.67.3.37,0,.59-.15.89-.22,3.26-1.26,6.3-2.96,9.18-4.89,4-2.67,8-5.41,12-8.07,1.11-.74,2.22-1.41,3.41-2.07.59-.3,1.11-.44,1.7-.44.74,0,1.48.3,2.22.74,1.33.81,1.78,1.7,1.41,3.26-.44,1.7-.96,3.33-1.33,5.04-.37,1.33-.37,2.74-.15,4.07.07.82.37,1.26,1.11,1.26.15,0,.37,0,.59-.07,5.18-1.56,10.89-5.26,15.11-8.52,1.33-.96,2.3-1.41,2.81-1.41Z"/>
    <path class="cls-1" d="M379.6,219.37c1.48,0,2.44.67,2.59,3.04-.74,0-1.41.07-2.07.22-5.41,1.11-17.85,4.67-21.78,8.89-2.96,3.26-6.15,6.22-9.85,8.52-1.41.74-2.3,1.11-3.93,1.11-.96-.07-1.7-.44-2.44-1.04-.81-.74-1.04-1.63-.3-2.59,2.37-3.19,8.22-6.96,11.63-8.81,3.7-2,6.67-6.52,8.44-10.22.3-.67.74-1.33.67-2.22h-.3c-.74,0-1.26.44-1.85.74-3.56,2.07-6.67,4.67-9.78,7.33-5.26,4.59-10.22,9.55-15.11,14.44-1.33,1.33-2.67,2.67-4.07,3.85-.74.67-1.48.96-2.3.96-.74,0-1.48-.3-2.22-.82-1.11-.74-1.48-1.7-1.11-3.04.59-1.7,1.33-3.33,2-5.04,3.63-9.04,16.74-32.44,32.29-51.4,2.07-2.44,4.15-4.89,6.67-6.81,1.04-.74,2-1.11,2.89-1.11.74,0,1.48.22,2.3.74,1.41.89,1.85,1.93,1.48,3.56-.44,1.85-1.19,3.55-2.07,5.18-3.63,6.81-8.3,12.89-13.04,18.96-5.41,6.89-11.18,13.55-17.26,19.85-.37.3-.67.89-1.19.81h-.37c-1.19,0-1.63.89-2.15,1.85-1.26,2.22-2.37,4.52-3.63,7.04,1.11-.07,1.48-.81,1.93-1.26,4.44-4.37,8.89-8.67,13.78-12.59,2.89-2.44,9.04-7.26,13.04-7.26,1.56,0,2.89.67,4,1.85,1.41,1.41,1.04,3.04.44,4.67-.44,1.33-1.11,2.59-1.63,3.85.15.15.3.15.44.15s.3,0,.44-.07c3.56-1.26,9.7-3.33,13.41-3.33ZM344.57,213.6c3.93-3.11,20.66-26.37,21.26-29.4-3.11,2.59-19.41,24.15-21.26,29.4Z"/>
    <path class="cls-1" d="M401.6,218.41c1.78,0,3.93,4.52-6,5.78-3.19.44-5.56,1.7-7.26,4.67-2,3.41-5.85,6.22-9.92,6.22s-6.52-3.33-5.18-7.48c1.41-4.59,3.93-8.52,7.41-11.78,1.26-1.18,2.37-1.78,3.41-1.78,1.33,0,2.52.89,3.7,2.67.22.3.52.44.81.59,1.41.74,2.59,1.78,2.89,3.48.07.44.3.59.67.59.15,0,.3,0,.44-.07,2.96-.74,5.85-1.7,8.67-2.81.07-.07.22-.07.37-.07ZM382.49,225.3c-.74-.22-1.48-.52-2.15-.89-.3-.15-.52-.22-.67-.22-1.33,0-3.04,5.55-3.26,6.67-.07.96.07,1.33.52,1.33,1.78,0,5.11-3.26,6.22-4.52,1.41-1.63,1.41-1.7-.67-2.37ZM386.56,218.56c-.22-.07-.44-.15-.59-.15-.74,0-2.67,1.11-3.26,1.7-.52.59-1.41,1.04-1.04,1.93.15.44.52.52.96.52.15,0,.3-.07.44-.07h1.63c1.26-.07,1.78-.96,2.07-2.07.15-.67.44-1.56-.22-1.85Z"/>
    <path class="cls-1" d="M433.82,221.3c.07.96-1.04,1.04-1.7,1.26-8.15,3.11-15.78,7.33-23.4,11.55-1.11.59-2.3,1.18-3.48,1.78-.67.37-1.41.52-2.07.52-.37,0-.74-.07-1.11-.15-2.44-.44-3.19-2.15-2-4.22.89-1.56,1.78-2.96,2.74-4.44.52-.96,1.11-1.93,1.41-2.96.52-1.56.15-2.22-1.41-2.96-1.33-.59-2.74-1.11-4.15-1.78-3.11-1.41-3.33-3.33-3.48-5.04-.3-3.55,6.44-9.04,10.81-9.04,1.33,0,2.81.59,3.78,1.48,1.19,1.04,1.7,2.3,1.19,3.93-.67,2.22-4.07,6.81-5.85,8.29q4.59,4.37,2.22,10.15c.15,0,.3.07.37.07.67,0,1.11-.52,1.63-.74,5.7-3.04,11.41-6,17.33-8.44.81-.37,1.63-.74,2.52-.96.44-.15.96-.3,1.41-.3.52,0,1.11.15,1.63.37.74.37,1.63.74,1.63,1.63ZM406.12,209.75c-2.37.81-4.22,2.3-5.63,4.3-.3.44-.81.96-.37,1.48.15.22.44.3.67.3.59,0,1.11-.22,1.63-.52,1.56-1.55,3.11-3.26,3.7-5.55Z"/>
    <path class="cls-1" d="M477.07,218.86c2.44,0-2.89,8.07-14.81,12.15-.89.3-1.78.44-2.59.44-3.78,0-6.96-2.74-6.81-6.81,0-1.33.22-2.67.37-4.07-.96-.07-1.48.59-2.07,1.04-4.67,3.18-9.26,6.44-14.29,9.11-2.59,1.41-6.07,3.11-9.11,3.11-1.19,0-2.3-.3-3.33-.96-1.85-1.18-2.3-2.59-1.48-4.67,2.59-6.59,15.11-14.81,21.78-18.29,3.48-1.85,7.04-3.26,10.96-3.63,2.44,0,4.22.15,6.22,1.7.52.44,1.19,1.04.74,1.78-.22.37-.59.52-.96.52-.3,0-.67-.07-.89-.22-.96-.52-1.93-.74-2.89-.74-1.56,0-3.04.59-4.52,1.19-8.89,3.41-16.59,8.67-23.18,15.55-1.11,1.11-2.07,2.37-2.74,3.85.22.22.44.3.67.3.37,0,.59-.15.89-.22,3.26-1.26,6.3-2.96,9.18-4.89,4-2.67,8-5.41,12-8.07,1.11-.74,2.22-1.41,3.41-2.07.59-.3,1.11-.44,1.7-.44.74,0,1.48.3,2.22.74,1.33.81,1.78,1.7,1.41,3.26-.44,1.7-.96,3.33-1.33,5.04-.37,1.33-.37,2.74-.15,4.07.07.82.37,1.26,1.11,1.26.15,0,.37,0,.59-.07,5.18-1.56,10.89-5.26,15.11-8.52,1.33-.96,2.3-1.41,2.81-1.41Z"/>
    <path class="cls-1" d="M507.28,222.34c-4.67,4-17.48,14.29-23.48,14.29-16.89.22-8.59-26.66-.22-43.4.15-.3.15-.67.44-1.41h-.67c-2.67,0-5.11-.37-7.48-.37-3.78-.07-7.48-.07-11.26-.07-2.74,0-5.48,0-8.22.07-3.04.07-6.07.44-9.04,1.04-.52.07-.96.15-1.41.15-.81,0-1.63-.15-2.37-.74-.44-.37-1.04-.74-.89-1.48.15-.59.81-.74,1.33-.81,6.44-1.19,13.04-1.41,19.63-1.41,3.78,0,7.55.07,11.33.37,2.89.22,5.85,0,8.67.52,1.63,0,2.15-.07,2.96-1.7,3.63-6.81,7.63-13.41,12.07-19.78.59-.81,1.11-1.56,1.78-2.3.67-.81,1.33-1.19,2.07-1.19.44,0,.96.15,1.56.44,1.48.82,1.63,1.56.59,2.89-4.81,6.37-8.89,13.26-12.74,20.15-1.04,1.85-.89,2.07,1.33,2.3,2.37.22,8.3.74,10.22,2.22.44.37,1.11.74.74,1.48-.15.37-.52.52-.89.52-.22,0-.37-.07-.59-.07-1.56-.15-3.11-.37-4.67-.67-2.52-.52-5.04-.59-7.63-.96-.81,0-1.26.07-1.63.89-4.59,9.18-8.96,18.44-10.59,28.66-.44,3.11-.52,6.37.67,9.41.59,1.56,1.19,2.22,2.3,2.22.44,0,.96-.07,1.56-.3,6.59-2,15.26-9.04,20.37-13.33.81-.67,1.56-1.04,2.22-1.04.59,0,1.11.22,1.7.59,1.48.89,1.56,1.63.22,2.82Z"/>
    <path class="cls-1" d="M527.72,218.41c1.78,0,3.93,4.52-6,5.78-3.19.44-5.56,1.7-7.26,4.67-2,3.41-5.85,6.22-9.93,6.22s-6.52-3.33-5.18-7.48c1.41-4.59,3.93-8.52,7.41-11.78,1.26-1.18,2.37-1.78,3.41-1.78,1.33,0,2.52.89,3.7,2.67.22.3.52.44.81.59,1.41.74,2.59,1.78,2.89,3.48.07.44.3.59.67.59.15,0,.3,0,.44-.07,2.96-.74,5.85-1.7,8.67-2.81.07-.07.22-.07.37-.07ZM508.62,225.3c-.74-.22-1.48-.52-2.15-.89-.3-.15-.52-.22-.67-.22-1.33,0-3.04,5.55-3.26,6.67-.07.96.07,1.33.52,1.33,1.78,0,5.11-3.26,6.22-4.52,1.41-1.63,1.41-1.7-.67-2.37ZM512.69,218.56c-.22-.07-.44-.15-.59-.15-.74,0-2.67,1.11-3.26,1.7-.52.59-1.41,1.04-1.04,1.93.15.44.52.52.96.52.15,0,.3-.07.44-.07h1.63c1.26-.07,1.78-.96,2.07-2.07.15-.67.44-1.56-.22-1.85Z"/>
    <path class="cls-1" d="M559.94,221.3c.07.96-1.04,1.04-1.7,1.26-8.15,3.11-15.78,7.33-23.4,11.55-1.11.59-2.3,1.18-3.48,1.78-.67.37-1.41.52-2.07.52-.37,0-.74-.07-1.11-.15-2.44-.44-3.19-2.15-2-4.22.89-1.56,1.78-2.96,2.74-4.44.52-.96,1.11-1.93,1.41-2.96.52-1.56.15-2.22-1.41-2.96-1.33-.59-2.74-1.11-4.15-1.78-3.11-1.41-3.33-3.33-3.48-5.04-.3-3.55,6.44-9.04,10.81-9.04,1.33,0,2.81.59,3.78,1.48,1.19,1.04,1.7,2.3,1.19,3.93-.67,2.22-4.07,6.81-5.85,8.29q4.59,4.37,2.22,10.15c.15,0,.3.07.37.07.67,0,1.11-.52,1.63-.74,5.7-3.04,11.41-6,17.33-8.44.81-.37,1.63-.74,2.52-.96.44-.15.96-.3,1.41-.3.52,0,1.11.15,1.63.37.74.37,1.63.74,1.63,1.63ZM532.24,209.75c-2.37.81-4.22,2.3-5.63,4.3-.3.44-.81.96-.37,1.48.15.22.44.3.67.3.59,0,1.11-.22,1.63-.52,1.56-1.55,3.11-3.26,3.7-5.55Z"/>
    <path class="cls-1" d="M600.75,219c1.48,0,2.96,1.04,1.93,1.78-3.11,2.89-5.63,4.15-5.85,4.3,0,0-18.29,12.22-34,12.22-.96,0-1.93-.07-2.89-.15-4.96-.52-6.52-4.81-6.3-9.18.3-6.15,6.74-16.15,12-19.85.74-.45,1.56-.74,2.37-.74.89,0,1.7.3,2.44.81.89.67.89,1.04-.15,1.48-.81.44-1.48.89-2.07,1.48-4.74,4.67-8.3,9.85-9.78,15.7-.44,1.48-.44,3.04-.22,4.52.37,2.15,1.48,2.82,4.22,2.89,8.52,0,21.85-6.37,29.03-10.37,3.04-1.78,4.96-2.59,7.92-4.52.37-.22.81-.37,1.33-.37ZM568.83,203.45c-.07-.89,1.11-.96,1.93-1.18.89-.37,2.07-.67,3.11-.67.74,0,1.33.22,1.93.44.59.3,1.26.67,1.11,1.26-.07.52-.81.59-1.41.74-.81.22-1.63.44-2.44.74-.37.07-.74.15-1.11.15-.89,0-3.04-.44-3.11-1.48Z"/>
    <path class="cls-1" d="M622.97,218.41c1.78,0,3.93,4.52-6,5.78-3.19.44-5.56,1.7-7.26,4.67-2,3.41-5.85,6.22-9.92,6.22s-6.52-3.33-5.18-7.48c1.41-4.59,3.93-8.52,7.41-11.78,1.26-1.18,2.37-1.78,3.41-1.78,1.33,0,2.52.89,3.7,2.67.22.3.52.44.81.59,1.41.74,2.59,1.78,2.89,3.48.07.44.3.59.67.59.15,0,.3,0,.44-.07,2.96-.74,5.85-1.7,8.67-2.81.07-.07.22-.07.37-.07ZM603.86,225.3c-.74-.22-1.48-.52-2.15-.89-.3-.15-.52-.22-.67-.22-1.33,0-3.04,5.55-3.26,6.67-.07.96.07,1.33.52,1.33,1.78,0,5.11-3.26,6.22-4.52,1.41-1.63,1.41-1.7-.67-2.37ZM607.93,218.56c-.22-.07-.44-.15-.59-.15-.74,0-2.67,1.11-3.26,1.7-.52.59-1.41,1.04-1.04,1.93.15.44.52.52.96.52.15,0,.3-.07.44-.07h1.63c1.26-.07,1.78-.96,2.07-2.07.15-.67.44-1.56-.22-1.85Z"/>
    <path class="cls-1" d="M696.66,234.26c14.81-8,28.81-17.26,41.18-28.74,3.78-3.41,10.07-10.15,11.33-15.33.96-3.7-.07-5.55-3.78-6.52-2.07-.52-4.22-.81-6.37-.81-1.11,0-2.15.07-3.26.22-23.63,2.67-45.4,10.81-65.99,22.44-3.11,1.78-6.15,3.78-8.67,6.37-.81.74-2.22,1.7-1.63,2.81.22.37.67.52,1.11.52.67,0,1.48-.22,2.07-.3,3.63-.44,7.33-1.18,10.96-2.15.37-.07.67-.15.96-.15.96,0,1.78.37,2.52.96.37.37.89.74.67,1.33-.15.52-.59.67-1.11.81-3.41.82-6.81,1.63-10.37,2.07-1.26.15-2.59.3-3.85.3-2.3,0-4.89-.59-6.59-2.07-1.41-1.33-1.63-2.59-.74-4.3,2.67-4.52,12-9.7,16.44-12,18.37-9.55,45.55-19.78,66.36-19.78,4.44,0,9.78.89,13.26,3.78,2.52,2.15,3.33,4.81,2.52,8-2.07,7.78-11.48,16.29-17.41,21.26-12.74,10.59-26.66,19.41-41.48,26.81-2.22,1.11-4.44,2.07-6.74,2.96-.52.22-1.04.3-1.55.3-.74,0-1.48-.3-2.15-.81-1.18-.82-1.18-1.93.15-2.22,2.96-.74,4-2.89,5.18-5.33,3.33-6.96,7.7-13.26,12.15-19.55,5.18-7.33,10.52-14.59,16.52-21.26.74-.89,1.55-1.33,2.37-1.33.67,0,1.26.3,1.92.74,1.04.81,1.19,1.33.3,2.37-1.04,1.26-2.22,2.52-3.26,3.78-8.44,10.37-16.29,21.11-23.18,32.59-.44.74-1.04,1.48-1.19,2.52.59,0,.74,0,1.33-.3Z"/>
    <path class="cls-1" d="M775.76,219.08c2.07,0,1.04,3.19-3.92,6.15-7.63,4.59-20,10.89-29.18,11.63-3.26,0-5.63-.15-8.29-2.52-1.85-1.63-2.59-3.63-2.22-6.07.37-2.44,1.33-4.52,2.59-6.52,4.74-7.18,11.04-12.52,18.67-16.29,1.7-.96,3.18-1.11,5.04-1.11,1.18.07,2.3.52,3.18,1.26,1.19,1.11,1.41,2,.89,3.55-2.15,5.48-9.92,9.7-14.89,11.92-.59.22-1.19.37-1.85.37-.82,0-1.7-.3-2.44-.89-.37-.37-.74-.52-1.04-.52-.44,0-.81.37-1.19.82-1.63,2.22-2.96,4.37-4,6.96-1.33,4-.3,6,2.89,6,.67,0,1.33-.07,2.07-.22,9.63-1.7,22.81-8.52,30.96-13.48,1.19-.67,2.15-1.04,2.74-1.04ZM744.13,217.82c4.59-.89,12-6.37,13.11-9.78-5.11,2.52-9.41,5.78-13.11,9.78Z"/>
    <path class="cls-1" d="M832.42,221.15c-6.52,4.67-16.59,11.41-24.44,11.41-4.59-.15-7.11-3.26-6.15-7.78.82-3.48,2.37-6.74,3.85-10,.37-.67.81-1.33.89-2.22-1.11.22-1.63.96-2.3,1.48-5.92,4.96-11.7,10.15-17.78,14.89-2.52,1.93-5.11,3.85-7.85,5.48-1.26.81-2.67,1.48-4.15,1.7-.3.07-.59.07-.81.07-2.89,0-4.89-2.52-4.3-5.48l5.92-12.37c.59-1.48,2.37-2.07,3.7-2.07,1.19,0,2.07.44,1.63,1.11-1.63,2.74-6.15,11.18-6.52,14.37.15.07.3.07.44.07,1.48,0,12.52-9.11,14.22-10.52,4.59-3.85,9.11-7.7,13.63-11.55,1.56-1.33,4.74-4,6.96-4,.22,0,.52,0,.74.07,2.52.44,3.7,2.3,2.74,4.67-.81,2.07-1.78,4.15-2.74,6.22-1.33,2.89-2.74,5.7-3.56,8.81-.37,1.18-1.04,2.59-.15,3.55.3.37.74.52,1.11.52.82,0,1.63-.52,2.37-.74,5.18-1.7,9.85-4.44,14.37-7.33,1.41-.89,2.74-1.93,4.15-2.81.59-.37,1.26-.59,1.85-.59.74,0,1.48.3,2.15.82,1.04.81,1.11,1.48,0,2.22Z"/>
    <path class="cls-1" d="M862.63,222.34c-4.67,4-17.48,14.29-23.48,14.29-16.89.22-8.59-26.66-.22-43.4.15-.3.15-.67.44-1.41h-.67c-2.67,0-5.11-.37-7.48-.37-3.78-.07-7.48-.07-11.26-.07-2.74,0-5.48,0-8.22.07-3.04.07-6.07.44-9.04,1.04-.52.07-.96.15-1.41.15-.82,0-1.63-.15-2.37-.74-.44-.37-1.04-.74-.89-1.48.15-.59.81-.74,1.33-.81,6.44-1.19,13.04-1.41,19.63-1.41,3.78,0,7.55.07,11.33.37,2.89.22,5.85,0,8.67.52,1.63,0,2.15-.07,2.96-1.7,3.63-6.81,7.63-13.41,12.07-19.78.59-.81,1.11-1.56,1.78-2.3.67-.81,1.33-1.19,2.07-1.19.44,0,.96.15,1.56.44,1.48.82,1.63,1.56.59,2.89-4.81,6.37-8.89,13.26-12.74,20.15-1.04,1.85-.89,2.07,1.33,2.3,2.37.22,8.29.74,10.22,2.22.44.37,1.11.74.74,1.48-.15.37-.52.52-.89.52-.22,0-.37-.07-.59-.07-1.56-.15-3.11-.37-4.67-.67-2.52-.52-5.04-.59-7.63-.96-.81,0-1.26.07-1.63.89-4.59,9.18-8.96,18.44-10.59,28.66-.44,3.11-.52,6.37.67,9.41.59,1.56,1.19,2.22,2.3,2.22.44,0,.96-.07,1.56-.3,6.59-2,15.26-9.04,20.37-13.33.81-.67,1.56-1.04,2.22-1.04.59,0,1.11.22,1.7.59,1.48.89,1.56,1.63.22,2.82Z"/>
    <path class="cls-1" d="M906.03,218.86c2.44,0-2.89,8.07-14.81,12.15-.89.3-1.78.44-2.59.44-3.78,0-6.96-2.74-6.81-6.81,0-1.33.22-2.67.37-4.07-.96-.07-1.48.59-2.07,1.04-4.67,3.18-9.26,6.44-14.29,9.11-2.59,1.41-6.07,3.11-9.11,3.11-1.19,0-2.3-.3-3.33-.96-1.85-1.18-2.3-2.59-1.48-4.67,2.59-6.59,15.11-14.81,21.78-18.29,3.48-1.85,7.04-3.26,10.96-3.63,2.44,0,4.22.15,6.22,1.7.52.44,1.18,1.04.74,1.78-.22.37-.59.52-.96.52-.3,0-.67-.07-.89-.22-.96-.52-1.93-.74-2.89-.74-1.55,0-3.04.59-4.52,1.19-8.89,3.41-16.59,8.67-23.18,15.55-1.11,1.11-2.07,2.37-2.74,3.85.22.22.44.3.67.3.37,0,.59-.15.89-.22,3.26-1.26,6.3-2.96,9.18-4.89,4-2.67,8-5.41,12-8.07,1.11-.74,2.22-1.41,3.41-2.07.59-.3,1.11-.44,1.7-.44.74,0,1.48.3,2.22.74,1.33.81,1.78,1.7,1.41,3.26-.44,1.7-.96,3.33-1.33,5.04-.37,1.33-.37,2.74-.15,4.07.07.82.37,1.26,1.11,1.26.15,0,.37,0,.59-.07,5.18-1.56,10.89-5.26,15.11-8.52,1.33-.96,2.3-1.41,2.81-1.41Z"/>
    <path class="cls-1" d="M935.88,218.93c1.56,0,1.48,1.63-.07,3.11-3.26,3.18-23.26,19.48-27.18,21.7-2.3,1.33-4.96,2.52-7.63,2.52-3.78,0-6.3-2.81-5.93-6.89,1.78-17.55,30.52-55.99,45.25-71.7,2.59-2.74,5.26-5.41,8.22-7.7,1.19-.96,2.89-2.07,4.52-2.07,1.04,0,1.93.52,2.74,1.19,1.11,1.04.89,2.3.37,3.63-.89,2.15-2.15,4.07-3.48,6-5.63,8-12,15.33-18.37,22.66-7.85,8.96-15.92,17.85-24.59,26.07-.81.81-1.48,1.63-2,2.59-2.74,4.96-8.07,15.33-8.37,21.18,0,1.33.15,1.93.81,1.93,1.41,0,5.41-2.22,6.59-3.04,5.7-3.63,18.37-13.63,22.59-17.41,3.18-2.81,5.33-3.78,6.52-3.78ZM921.14,199.08c9.85-10.67,19.63-21.41,27.78-33.4-10.74,10-19.63,21.33-27.78,33.4Z"/>
  </g>
  <g>
    <g>
      <path class="cls-1" d="M54.3,140.55c-2.31,0-3.18-1.45-2.22-3.57l28.25-62.96c.77-1.54,1.83-2.31,3.57-2.31h2.6c1.74,0,2.8.77,3.57,2.31l28.25,62.96c.96,2.12,0,3.57-2.31,3.57h-1.16c-1.74,0-2.8-.77-3.57-2.31l-11.28-25.07h-29.6l-11.28,25.07c-.77,1.54-1.83,2.31-3.57,2.31h-1.25ZM85.25,80.19l-11.86,26.23h23.62l-11.76-26.23Z"/>
      <path class="cls-1" d="M116.01,141.05h-1.16c-1.86,0-3.13-.82-4.01-2.59l-11.16-24.79h-28.96l-11.15,24.77c-.89,1.79-2.17,2.61-4.02,2.61h-1.25c-1.63,0-2.39-.65-2.74-1.19-.36-.55-.63-1.54.07-3.09l28.25-62.96c.89-1.79,2.17-2.61,4.02-2.61h2.6c1.85,0,3.13.82,4.01,2.59l28.26,62.98c.69,1.51.4,2.49.04,3.04-.51.79-1.51,1.23-2.81,1.23ZM70.08,112.66h30.25l11.41,25.36c.71,1.41,1.64,2.02,3.11,2.02h1.16c.95,0,1.65-.27,1.97-.77.32-.49.28-1.23-.11-2.09l-28.25-62.97c-.71-1.41-1.64-2.02-3.11-2.02h-2.6c-1.47,0-2.41.61-3.12,2.04l-28.24,62.94c-.4.89-.45,1.64-.14,2.13.39.6,1.25.73,1.9.73h1.25c1.47,0,2.41-.61,3.12-2.04l11.41-25.35ZM97.78,106.91h-25.17l12.64-27.94,12.53,27.94ZM74.16,105.91h22.08l-10.99-24.51-11.08,24.51Z"/>
    </g>
    <g>
      <path class="cls-1" d="M159.69,140.55c-2.02,0-3.09-1.06-3.09-3.08v-62.67c0-2.02,1.06-3.08,3.09-3.08h19.48c13.11,0,21.98,8.58,21.98,21.41,0,10.7-6.07,18.42-15.81,20.73l18.03,22.95c1.64,2.03.77,3.76-1.83,3.76h-2.22c-1.64,0-2.7-.58-3.76-1.83l-19.09-24.2h-12.82v22.95c0,2.02-1.06,3.08-3.09,3.08h-.87ZM179.17,107.76c8.77,0,14.66-5.88,14.66-14.66s-5.79-14.66-14.66-14.66h-15.52v29.31h15.52Z"/>
      <path class="cls-1" d="M201.53,141.05h-2.22c-1.74,0-2.94-.58-4.14-2.01l-18.95-24.02h-12.08v22.45c0,2.31-1.27,3.58-3.58,3.58h-.87c-2.31,0-3.59-1.27-3.59-3.58v-62.67c0-2.31,1.27-3.58,3.59-3.58h19.48c13.45,0,22.48,8.8,22.48,21.91,0,10.6-5.76,18.41-15.45,21.03l17.56,22.34c.91,1.12,1.17,2.24.74,3.15-.43.9-1.51,1.42-2.97,1.42ZM163.14,114.01h13.57l19.24,24.39c1,1.18,1.94,1.64,3.37,1.64h2.22c1.05,0,1.8-.31,2.06-.85.25-.53.03-1.29-.62-2.09l-18.52-23.57.76-.18c9.66-2.3,15.43-9.86,15.43-20.24,0-12.5-8.63-20.91-21.48-20.91h-19.48c-1.74,0-2.59.85-2.59,2.58v62.67c0,1.74.85,2.58,2.59,2.58h.87c1.74,0,2.58-.85,2.58-2.58v-23.45ZM179.16,108.26h-16.02v-30.31h16.02c9.07,0,15.16,6.09,15.16,15.16s-6.09,15.16-15.16,15.16ZM164.14,107.26h15.02c8.47,0,14.16-5.69,14.16-14.16s-5.56-14.16-14.16-14.16h-15.02v28.31Z"/>
    </g>
    <g>
      <path class="cls-1" d="M263.63,140.55c-2.02,0-3.09-1.06-3.09-3.08v-59.01h-20.25c-2.02,0-3.09-1.06-3.09-3.08v-.58c0-2.02,1.06-3.08,3.09-3.08h47.44c2.02,0,3.09,1.06,3.09,3.08v.58c0,2.02-1.06,3.08-3.09,3.08h-20.15v59.01c0,2.02-1.06,3.08-3.09,3.08h-.87Z"/>
      <path class="cls-1" d="M264.5,141.05h-.87c-2.31,0-3.58-1.27-3.58-3.58v-58.51h-19.75c-2.31,0-3.59-1.27-3.59-3.58v-.58c0-2.31,1.27-3.58,3.59-3.58h47.44c2.31,0,3.58,1.27,3.58,3.58v.58c0,2.31-1.27,3.58-3.58,3.58h-19.65v58.51c0,2.31-1.27,3.58-3.58,3.58ZM240.3,72.2c-1.74,0-2.59.85-2.59,2.58v.58c0,1.74.85,2.58,2.59,2.58h20.75v59.51c0,1.74.85,2.58,2.58,2.58h.87c1.74,0,2.58-.85,2.58-2.58v-59.51h20.65c1.74,0,2.58-.85,2.58-2.58v-.58c0-1.74-.85-2.58-2.58-2.58h-47.44Z"/>
    </g>
    <g>
      <path class="cls-1" d="M331.51,140.55c-2.02,0-3.08-1.06-3.08-3.08v-62.67c0-2.02,1.06-3.08,3.08-3.08h33.75c2.02,0,3.09,1.06,3.09,3.08v.58c0,2.02-1.06,3.08-3.09,3.08h-29.79v19.28h27.96c2.02,0,3.09,1.06,3.09,3.08v.58c0,2.02-1.06,3.08-3.09,3.08h-27.96v29.31h29.79c2.02,0,3.09,1.06,3.09,3.08v.58c0,2.02-1.06,3.08-3.09,3.08h-33.75Z"/>
      <path class="cls-1" d="M365.26,141.05h-33.75c-2.31,0-3.58-1.27-3.58-3.58v-62.67c0-2.31,1.27-3.58,3.58-3.58h33.75c2.31,0,3.58,1.27,3.58,3.58v.58c0,2.31-1.27,3.58-3.58,3.58h-29.29v18.28h27.46c2.31,0,3.58,1.27,3.58,3.58v.58c0,2.31-1.27,3.58-3.58,3.58h-27.46v28.31h29.29c2.31,0,3.58,1.27,3.58,3.58v.58c0,2.31-1.27,3.58-3.58,3.58ZM331.51,72.2c-1.74,0-2.58.85-2.58,2.58v62.67c0,1.74.85,2.58,2.58,2.58h33.75c1.74,0,2.58-.85,2.58-2.58v-.58c0-1.74-.85-2.58-2.58-2.58h-30.29v-30.31h28.46c1.74,0,2.58-.85,2.58-2.58v-.58c0-1.74-.85-2.58-2.58-2.58h-28.46v-20.28h30.29c1.74,0,2.58-.85,2.58-2.58v-.58c0-1.74-.85-2.58-2.58-2.58h-33.75Z"/>
    </g>
    <g>
      <path class="cls-1" d="M498.13,124.15c2.41,0,3.28,1.74,1.74,3.76-6.56,8.29-16.68,13.59-28.06,13.59-19.77,0-35.96-16.01-35.96-35.67s16.2-34.9,35.96-34.9c11.18,0,21.21,5.21,27.77,13.21,1.64,2.03.58,3.76-1.93,3.76h-1.83c-1.64,0-2.7-.48-3.86-1.64-5.11-5.11-12.25-8.29-20.15-8.29-15.91,0-28.64,12.73-28.64,27.87,0,15.91,12.73,28.64,28.64,28.64,8,0,15.33-3.28,20.34-8.58,1.16-1.25,2.22-1.74,3.86-1.74h2.12Z"/>
      <path class="cls-1" d="M471.81,142.01c-20.11,0-36.46-16.23-36.46-36.17s16.7-35.4,36.46-35.4c10.92,0,21.18,4.88,28.16,13.39.88,1.09,1.13,2.19.69,3.1-.45.94-1.54,1.48-3.01,1.48h-1.83c-1.75,0-2.93-.5-4.21-1.79-5.25-5.25-12.29-8.15-19.8-8.15-15.51,0-28.14,12.28-28.14,27.37s12.62,28.14,28.14,28.14c7.64,0,14.92-3.07,19.98-8.43,1.26-1.36,2.44-1.89,4.22-1.89h2.12c1.34,0,2.35.5,2.79,1.37.45.9.21,2.06-.65,3.19-6.93,8.77-17.3,13.79-28.46,13.79ZM471.81,71.43c-19.22,0-35.46,15.76-35.46,34.4s15.91,35.17,35.46,35.17c10.85,0,20.93-4.89,27.67-13.4.62-.81.82-1.59.55-2.13-.26-.52-.95-.82-1.89-.82h-2.12c-1.5,0-2.42.41-3.49,1.57-5.25,5.56-12.8,8.74-20.71,8.74-16.07,0-29.14-13.07-29.14-29.14s13.07-28.37,29.14-28.37c7.78,0,15.06,3,20.51,8.44,1.09,1.09,2.04,1.49,3.5,1.49h1.83c1.05,0,1.83-.34,2.11-.91.25-.53.05-1.28-.57-2.04-6.78-8.28-16.76-13.02-27.38-13.02Z"/>
    </g>
    <g>
      <path class="cls-1" d="M546.05,140.55c-2.02,0-3.09-1.06-3.09-3.08v-62.67c0-2.02,1.06-3.08,3.09-3.08h33.75c2.02,0,3.09,1.06,3.09,3.08v.58c0,2.02-1.06,3.08-3.09,3.08h-29.79v19.28h27.96c2.02,0,3.09,1.06,3.09,3.08v.58c0,2.02-1.06,3.08-3.09,3.08h-27.96v29.31h29.79c2.02,0,3.09,1.06,3.09,3.08v.58c0,2.02-1.06,3.08-3.09,3.08h-33.75Z"/>
      <path class="cls-1" d="M579.8,141.05h-33.75c-2.31,0-3.59-1.27-3.59-3.58v-62.67c0-2.31,1.27-3.58,3.59-3.58h33.75c2.31,0,3.59,1.27,3.59,3.58v.58c0,2.31-1.27,3.58-3.59,3.58h-29.29v18.28h27.46c2.31,0,3.59,1.27,3.59,3.58v.58c0,2.31-1.27,3.58-3.59,3.58h-27.46v28.31h29.29c2.31,0,3.59,1.27,3.59,3.58v.58c0,2.31-1.27,3.58-3.59,3.58ZM546.05,72.2c-1.74,0-2.59.85-2.59,2.58v62.67c0,1.74.85,2.58,2.59,2.58h33.75c1.74,0,2.59-.85,2.59-2.58v-.58c0-1.74-.85-2.58-2.59-2.58h-30.29v-30.31h28.46c1.74,0,2.59-.85,2.59-2.58v-.58c0-1.74-.85-2.58-2.59-2.58h-28.46v-20.28h30.29c1.74,0,2.59-.85,2.59-2.58v-.58c0-1.74-.85-2.58-2.59-2.58h-33.75Z"/>
    </g>
    <g>
      <path class="cls-1" d="M629.36,140.55c-2.02,0-3.08-1.06-3.08-3.08v-62.67c0-2.02,1.06-3.08,3.08-3.08h19.48c13.11,0,21.98,8.58,21.98,21.41,0,10.7-6.07,18.42-15.81,20.73l18.03,22.95c1.64,2.03.77,3.76-1.83,3.76h-2.22c-1.64,0-2.7-.58-3.76-1.83l-19.09-24.2h-12.82v22.95c0,2.02-1.06,3.08-3.09,3.08h-.87ZM648.84,107.76c8.77,0,14.66-5.88,14.66-14.66s-5.79-14.66-14.66-14.66h-15.52v29.31h15.52Z"/>
      <path class="cls-1" d="M671.21,141.05h-2.22c-1.73,0-2.93-.58-4.14-2.01l-18.95-24.02h-12.08v22.45c0,2.31-1.27,3.58-3.59,3.58h-.87c-2.31,0-3.58-1.27-3.58-3.58v-62.67c0-2.31,1.27-3.58,3.58-3.58h19.48c13.45,0,22.48,8.8,22.48,21.91,0,10.6-5.76,18.41-15.44,21.03l17.56,22.34c.91,1.12,1.17,2.24.74,3.15-.43.9-1.51,1.42-2.97,1.42ZM632.81,114.01h13.57l19.24,24.39c1,1.18,1.94,1.64,3.37,1.64h2.22c1.05,0,1.8-.31,2.06-.85.25-.53.03-1.29-.62-2.09l-18.52-23.57.76-.18c9.66-2.3,15.43-9.86,15.43-20.24,0-12.5-8.63-20.91-21.48-20.91h-19.48c-1.74,0-2.58.85-2.58,2.58v62.67c0,1.74.85,2.58,2.58,2.58h.87c1.74,0,2.59-.85,2.59-2.58v-23.45ZM648.84,108.26h-16.02v-30.31h16.02c9.06,0,15.16,6.09,15.16,15.16s-6.09,15.16-15.16,15.16ZM633.81,107.26h15.02c8.47,0,14.16-5.69,14.16-14.16s-5.56-14.16-14.16-14.16h-15.02v28.31Z"/>
    </g>
    <g>
      <path class="cls-1" d="M709.78,140.55c-2.31,0-3.18-1.45-2.22-3.57l28.25-62.96c.77-1.54,1.83-2.31,3.57-2.31h2.6c1.74,0,2.8.77,3.57,2.31l28.25,62.96c.96,2.12,0,3.57-2.31,3.57h-1.16c-1.74,0-2.8-.77-3.57-2.31l-11.28-25.07h-29.6l-11.28,25.07c-.77,1.54-1.83,2.31-3.57,2.31h-1.25ZM740.73,80.19l-11.86,26.23h23.62l-11.76-26.23Z"/>
      <path class="cls-1" d="M771.49,141.05h-1.16c-1.86,0-3.13-.82-4.02-2.59l-11.16-24.79h-28.95l-11.15,24.77c-.89,1.79-2.17,2.61-4.02,2.61h-1.25c-1.63,0-2.39-.65-2.74-1.19-.36-.55-.63-1.54.07-3.09l28.25-62.96c.89-1.79,2.17-2.61,4.02-2.61h2.6c1.85,0,3.13.82,4.01,2.59l28.26,62.98c.68,1.51.4,2.49.04,3.04-.51.79-1.51,1.23-2.81,1.23ZM725.56,112.66h30.25l11.41,25.36c.71,1.41,1.64,2.02,3.11,2.02h1.16c.95,0,1.65-.27,1.97-.77.32-.49.28-1.23-.11-2.09l-28.25-62.97c-.71-1.41-1.64-2.02-3.11-2.02h-2.6c-1.47,0-2.41.61-3.12,2.04l-28.24,62.94c-.4.89-.45,1.64-.14,2.13.39.6,1.25.73,1.9.73h1.25c1.47,0,2.41-.61,3.12-2.04l11.41-25.35ZM753.26,106.91h-25.17l12.64-27.94,12.53,27.94ZM729.64,105.91h22.08l-10.99-24.51-11.08,24.51Z"/>
    </g>
    <g>
      <path class="cls-1" d="M876.78,140.55c-2.03,0-3.09-1.06-3.09-3.08v-49.66l-21.98,50.43c-.77,1.54-1.83,2.31-3.66,2.31h-3.18c-1.83,0-2.89-.77-3.66-2.31l-22.08-50.43v49.66c0,2.02-1.06,3.08-3.08,3.08h-.87c-2.02,0-3.08-1.06-3.08-3.08v-62.67c0-2.02,1.06-3.08,3.08-3.08h2.31c1.83,0,2.89.77,3.66,2.31l25.26,58.82,25.26-58.82c.77-1.54,1.83-2.31,3.66-2.31h2.31c2.03,0,3.09,1.06,3.09,3.08v62.67c0,2.02-1.06,3.08-3.09,3.08h-.87Z"/>
      <path class="cls-1" d="M877.65,141.05h-.87c-2.31,0-3.59-1.27-3.59-3.58v-47.26l-21.03,48.23c-.91,1.82-2.17,2.61-4.12,2.61h-3.18c-1.95,0-3.22-.8-4.11-2.59l-21.13-48.26v47.27c0,2.31-1.27,3.58-3.58,3.58h-.87c-2.31,0-3.58-1.27-3.58-3.58v-62.67c0-2.31,1.27-3.58,3.58-3.58h2.31c1.95,0,3.21.8,4.11,2.59l24.81,57.77,24.8-57.75c.91-1.82,2.17-2.62,4.12-2.62h2.31c2.31,0,3.59,1.27,3.59,3.58v62.67c0,2.31-1.27,3.58-3.59,3.58ZM874.19,85.41v52.06c0,1.74.85,2.58,2.59,2.58h.87c1.74,0,2.59-.85,2.59-2.58v-62.67c0-1.74-.85-2.58-2.59-2.58h-2.31c-1.56,0-2.49.59-3.22,2.04l-25.71,59.86-25.72-59.89c-.71-1.42-1.64-2.01-3.21-2.01h-2.31c-1.74,0-2.58.85-2.58,2.58v62.67c0,1.74.85,2.58,2.58,2.58h.87c1.74,0,2.58-.85,2.58-2.58v-52.05l23.04,52.62c.71,1.42,1.64,2.02,3.21,2.02h3.18c1.56,0,2.49-.59,3.22-2.04l22.93-52.6Z"/>
    </g>
    <g>
      <path class="cls-1" d="M928.17,140.55c-2.02,0-3.08-1.06-3.08-3.08v-62.67c0-2.02,1.06-3.08,3.08-3.08h.87c2.02,0,3.08,1.06,3.08,3.08v62.67c0,2.02-1.06,3.08-3.08,3.08h-.87Z"/>
      <path class="cls-1" d="M929.04,141.05h-.87c-2.31,0-3.58-1.27-3.58-3.58v-62.67c0-2.31,1.27-3.58,3.58-3.58h.87c2.31,0,3.58,1.27,3.58,3.58v62.67c0,2.31-1.27,3.58-3.58,3.58ZM928.17,72.2c-1.74,0-2.58.85-2.58,2.58v62.67c0,1.74.85,2.58,2.58,2.58h.87c1.74,0,2.58-.85,2.58-2.58v-62.67c0-1.74-.85-2.58-2.58-2.58h-.87Z"/>
    </g>
    <g>
      <path class="cls-1" d="M1033.95,124.15c2.41,0,3.28,1.74,1.74,3.76-6.56,8.29-16.68,13.59-28.06,13.59-19.77,0-35.96-16.01-35.96-35.67s16.2-34.9,35.96-34.9c11.18,0,21.21,5.21,27.77,13.21,1.64,2.03.58,3.76-1.93,3.76h-1.83c-1.64,0-2.7-.48-3.86-1.64-5.11-5.11-12.25-8.29-20.15-8.29-15.91,0-28.64,12.73-28.64,27.87,0,15.91,12.73,28.64,28.64,28.64,8,0,15.33-3.28,20.34-8.58,1.16-1.25,2.22-1.74,3.86-1.74h2.12Z"/>
      <path class="cls-1" d="M1007.62,142.01c-20.11,0-36.46-16.23-36.46-36.17s16.7-35.4,36.46-35.4c10.92,0,21.18,4.88,28.16,13.39.88,1.09,1.13,2.19.69,3.1-.45.94-1.54,1.48-3.01,1.48h-1.83c-1.75,0-2.92-.5-4.21-1.79-5.25-5.25-12.28-8.15-19.8-8.15-15.51,0-28.14,12.28-28.14,27.37s12.62,28.14,28.14,28.14c7.64,0,14.92-3.07,19.98-8.43,1.26-1.36,2.44-1.89,4.22-1.89h2.12c1.34,0,2.35.5,2.79,1.37.45.9.21,2.06-.65,3.19-6.93,8.77-17.3,13.79-28.46,13.79ZM1007.62,71.43c-19.22,0-35.46,15.76-35.46,34.4s15.91,35.17,35.46,35.17c10.85,0,20.93-4.89,27.67-13.4.62-.81.82-1.59.55-2.13-.26-.52-.95-.82-1.89-.82h-2.12c-1.5,0-2.42.41-3.49,1.57-5.25,5.56-12.8,8.74-20.71,8.74-16.07,0-29.14-13.07-29.14-29.14s13.07-28.37,29.14-28.37c7.78,0,15.06,3,20.5,8.44,1.09,1.09,2.04,1.49,3.5,1.49h1.83c1.05,0,1.83-.34,2.11-.91.25-.53.05-1.28-.57-2.04-6.78-8.28-16.76-13.02-27.38-13.02Z"/>
    </g>
    <g>
      <path class="cls-1" d="M1146.18,105.64c0,19.67-16.1,35.68-35.87,35.68s-35.87-16.01-35.87-35.68,16.1-34.9,35.87-34.9,35.87,16.01,35.87,34.9ZM1138.85,105.64c0-15.14-12.63-27.87-28.54-27.87s-28.54,12.73-28.54,27.87c0,15.91,12.63,28.64,28.54,28.64s28.54-12.73,28.54-28.64Z"/>
      <path class="cls-1" d="M1110.31,141.82c-20.05,0-36.37-16.23-36.37-36.18s16.65-35.4,36.37-35.4,36.37,16.21,36.37,35.4-16.31,36.18-36.37,36.18ZM1110.31,71.24c-19.17,0-35.37,15.76-35.37,34.4s15.87,35.18,35.37,35.18,35.37-15.78,35.37-35.18-16.2-34.4-35.37-34.4ZM1110.31,134.78c-16.28,0-29.04-12.8-29.04-29.14s13.03-28.37,29.04-28.37,29.04,12.72,29.04,28.37-12.76,29.14-29.04,29.14ZM1110.31,78.28c-15.46,0-28.04,12.28-28.04,27.37s12.32,28.14,28.04,28.14,28.04-12.36,28.04-28.14-12.58-27.37-28.04-27.37Z"/>
    </g>
  </g>
</svg>