<?xml version="1.0" encoding="UTF-8"?>
<svg id="Intagram" xmlns="http://www.w3.org/2000/svg" viewBox="0 0 212.86 145.15">
  <defs>
    <style>
      .cls-1 {
        fill: #00662f;
      }

      .cls-2 {
        fill: #98bf13;
      }
    </style>
  </defs>
  <g>
    <path class="cls-1" d="M7.97,132.51c-3.67,0-5.05-2.29-3.52-5.66L49.28,26.95c1.22-2.45,2.91-3.67,5.66-3.67h4.13c2.75,0,4.44,1.22,5.66,3.67l44.83,99.9c1.53,3.37,0,5.66-3.67,5.66h-1.84c-2.75,0-4.44-1.22-5.66-3.67l-17.9-39.78h-46.97l-17.9,39.78c-1.22,2.45-2.91,3.67-5.66,3.67h-1.99ZM57.08,36.74l-18.82,41.61h37.48l-18.66-41.61Z"/>
    <path class="cls-1" d="M105.88,133.31h-1.84c-2.94,0-4.97-1.31-6.37-4.11l-17.7-39.34h-45.94l-17.69,39.31c-1.42,2.83-3.44,4.14-6.38,4.14h-1.99c-2.59,0-3.79-1.03-4.35-1.89-.57-.88-1.01-2.44.11-4.9L48.55,26.63c1.42-2.83,3.44-4.14,6.38-4.14h4.13c2.94,0,4.97,1.31,6.37,4.11l44.84,99.93c1.09,2.39.64,3.95.07,4.83-.81,1.26-2.39,1.95-4.46,1.95ZM33.01,88.27h47.99l18.11,40.25c1.12,2.24,2.6,3.2,4.94,3.2h1.84c1.51,0,2.62-.43,3.13-1.22.5-.78.44-1.96-.18-3.32L64.01,27.28c-1.12-2.24-2.6-3.2-4.94-3.2h-4.13c-2.34,0-3.82.97-4.95,3.23L5.18,127.18c-.64,1.41-.72,2.61-.22,3.38.62.96,1.98,1.16,3.02,1.16h1.99c2.34,0,3.82-.97,4.95-3.23l18.1-40.22ZM76.97,79.15h-39.94l20.05-44.34,19.89,44.34ZM39.49,77.56h35.03l-17.44-38.89-17.59,38.89Z"/>
  </g>
  <g>
    <path class="cls-2" d="M206.55,104.18c3.82,0,5.2,2.75,2.75,5.97-10.4,13.16-26.47,21.57-44.52,21.57-31.36,0-57.07-25.4-57.07-56.6s25.7-55.38,57.07-55.38c17.75,0,33.66,8.26,44.06,20.96,2.6,3.21.92,5.97-3.06,5.97h-2.91c-2.6,0-4.28-.77-6.12-2.6-8.11-8.11-19.43-13.16-31.97-13.16-25.24,0-45.44,20.19-45.44,44.22,0,25.24,20.19,45.44,45.44,45.44,12.7,0,24.32-5.2,32.28-13.62,1.84-1.99,3.52-2.75,6.12-2.75h3.37Z"/>
    <path class="cls-2" d="M164.78,132.51c-31.9,0-57.86-25.75-57.86-57.4s26.5-56.18,57.86-56.18c17.33,0,33.61,7.75,44.68,21.25,1.4,1.73,1.79,3.47,1.1,4.92-.71,1.49-2.45,2.35-4.77,2.35h-2.91c-2.77,0-4.64-.79-6.68-2.83-8.33-8.34-19.49-12.93-31.41-12.93-24.62,0-44.64,19.48-44.64,43.42s20.03,44.64,44.64,44.64c12.12,0,23.67-4.87,31.7-13.37,1.99-2.16,3.87-3,6.7-3h3.37c2.12,0,3.73.79,4.42,2.18.71,1.42.33,3.27-1.04,5.06-11,13.91-27.45,21.88-45.15,21.88ZM164.78,20.53c-30.5,0-56.27,25-56.27,54.59s25.24,55.81,56.27,55.81c17.21,0,33.21-7.75,43.9-21.27.98-1.28,1.3-2.52.87-3.38-.41-.83-1.5-1.3-3-1.3h-3.37c-2.38,0-3.83.65-5.54,2.5-8.34,8.82-20.31,13.87-32.86,13.87-25.49,0-46.23-20.74-46.23-46.23s20.74-45.01,46.23-45.01c12.35,0,23.9,4.76,32.54,13.39,1.73,1.73,3.23,2.37,5.56,2.37h2.91c1.66,0,2.91-.54,3.34-1.44.4-.85.08-2.03-.9-3.23-10.76-13.13-26.59-20.66-43.44-20.66Z"/>
  </g>
</svg>